# xmcd
#
# Track frame offsets:
#	150
#	17488
#	32946
#	51361
#	63349
#	79670
#	96528
#	109340
#	136519
#
# Disc length: 1874 seconds
#
# Revision: 1
# Processed by: cddbd v1.5.1PL2 Copyright (c) Steve Scherf et al.
# Submitted via: audiograbber 1.83.01
#
DISCID=73075009
DTITLE=Candy Coburn - Enjoy The Ride
DYEAR=2004
DGENRE=Country
TTITLE0=Enjoy The Ride
TTITLE1=It's Good To Be A Girl
TTITLE2=Job Description
TTITLE3=Take It
TTITLE4=If I Told You Everything
TTITLE5=Fly
TTITLE6=All About Now
TTITLE7=Tell Me The Truth
TTITLE8=Data Track
EXTD=
EXTT0=
EXTT1=
EXTT2=
EXTT3=
EXTT4=
EXTT5=
EXTT6=
EXTT7=
EXTT8=
PLAYORDER=
